{"accessors":[{"bufferView":2,"componentType":5126,"count":18,"max":[0.04585222899913788,0.1430705487728119,0.07406871765851974],"min":[-0.04585222899913788,-0.16975167393684387,0.0005415529012680054],"type":"VEC3"},{"bufferView":2,"byteOffset":216,"componentType":5126,"count":18,"max":[0.8485283255577087,1.0,0.5291501879692078],"min":[-0.8485283255577087,-1.0,-1.0],"type":"VEC3"},{"bufferView":1,"componentType":5126,"count":18,"max":[0.9867192506790161,0.9292058944702148],"min":[0.013462841510772705,0.05250832438468933],"type":"VEC2"},{"bufferView":1,"byteOffset":144,"componentType":5126,"count":18,"max":[0.9867192506790161,0.9292058944702148],"min":[0.013462841510772705,0.05250832438468933],"type":"VEC2"},{"bufferView":0,"componentType":5125,"count":24,"type":"SCALAR"},{"bufferView":2,"byteOffset":432,"componentType":5126,"count":4348,"max":[10.512106895446777,10.156593322753906,68.87039184570312],"min":[-10.644408226013184,-10.559869766235352,-69.12403869628906],"type":"VEC3"},{"bufferView":2,"byteOffset":52608,"componentType":5126,"count":4348,"max":[0.9999952912330627,0.9999764561653137,0.9992513656616211],"min":[-0.999756932258606,-0.9999873638153076,-0.9932002425193787],"type":"VEC3"},{"bufferView":3,"componentType":5126,"count":4348,"max":[0.9999778270721436,0.9999468326568604,0.9987590312957764,1.0],"min":[-0.9999730587005615,-0.9999963641166687,-0.9845167994499207,-1.0],"type":"VEC4"},{"bufferView":1,"byteOffset":288,"componentType":5126,"count":4348,"max":[0.9940415620803833,0.9938121438026428],"min":[0.005958337336778641,0.005958292633295059],"type":"VEC2"},{"bufferView":1,"byteOffset":35072,"componentType":5126,"count":4348,"max":[0.9940415620803833,0.9938121438026428],"min":[0.005958337336778641,0.005958292633295059],"type":"VEC2"},{"bufferView":0,"byteOffset":96,"componentType":5125,"count":14496,"type":"SCALAR"}],"asset":{"extras":{"author":"AlyStation (https://sketchfab.com/alyxyuu)","license":"CC-BY-4.0 (http://creativecommons.org/licenses/by/4.0/)","source":"https://sketchfab.com/3d-models/one-wish-willow-from-obsession-movie-7269f920284c4bb7a169ee110034d164","title":"One Wish Willow from Obsession movie"},"generator":"Sketchfab-17.17.0","version":"2.0"},"bufferViews":[{"buffer":0,"byteLength":58080,"name":"floatBufferViews","target":34963},{"buffer":0,"byteLength":69856,"byteOffset":58080,"byteStride":8,"name":"floatBufferViews","target":34962},{"buffer":0,"byteLength":104784,"byteOffset":127936,"byteStride":12,"name":"floatBufferViews","target":34962},{"buffer":0,"byteLength":69568,"byteOffset":232720,"byteStride":16,"name":"floatBufferViews","target":34962}],"buffers":[{"byteLength":302288,"uri":"scene.bin"}],"images":[{"uri":"box_color.jpg"},{"uri":"box_mr.jpg"},{"uri":"bark_color.jpg"},{"uri":"bark_mr.jpg"},{"uri":"bark_normal.jpg"}],"materials":[{"doubleSided":true,"name":"Box_baked","pbrMetallicRoughness":{"baseColorTexture":{"index":0},"metallicFactor":0.0,"metallicRoughnessTexture":{"index":1}}},{"doubleSided":true,"name":"Bark_baked","normalTexture":{"index":4},"pbrMetallicRoughness":{"baseColorTexture":{"index":2},"metallicFactor":0.0,"metallicRoughnessTexture":{"index":3}}}],"meshes":[{"name":"box.001_Box baked_0","primitives":[{"attributes":{"NORMAL":1,"POSITION":0,"TEXCOORD_0":2,"TEXCOORD_1":3},"indices":4,"material":0,"mode":4}]},{"name":"willow.001_Bark baked_0","primitives":[{"attributes":{"NORMAL":6,"POSITION":5,"TANGENT":7,"TEXCOORD_0":8,"TEXCOORD_1":9},"indices":10,"material":1,"mode":4}]}],"nodes":[{"children":[1],"matrix":[1.0,-1.608122622957729e-16,-1.6081226229577294e-16,0.0,-1.6081226229577292e-16,2.220446049250313e-16,-1.0,0.0,1.6081226229577292e-16,1.0,2.2204460492503128e-16,0.0,0.0,0.0,0.0,1.0],"name":"Sketchfab_model"},{"children":[2],"matrix":[0.009999999776482582,0.0,0.0,0.0,0.0,0.0,0.009999999776482582,0.0,0.0,-0.009999999776482582,0.0,0.0,0.0,0.0,0.0,1.0],"name":"58741ddccd414f48b3fbb7ffc9092bf8.fbx"},{"children":[3,5],"name":"RootNode"},{"children":[4],"matrix":[586.571533203125,0.0,0.0,0.0,0.0,-9.556463270136132e-05,-586.5715332031173,0.0,0.0,586.5715332031173,-9.556463270136132e-05,0.0,13.146594047546387,-0.14762207865715027,-2.89154052734375,1.0],"name":"box.001"},{"mesh":0,"name":"box.001_Box baked_0"},{"children":[6],"matrix":[3.998263087713801e-08,-0.9146959411622686,0.003901840125079474,0.0,-0.9147019982337821,-3.934681474381447e-08,1.49114407306514e-07,0.0,-1.685035315981427e-07,-0.004414188377119327,-1.0348041084814392,0.0,-61.12392044067383,9.868946075439453,4.272341728210449,1.0],"name":"willow.001"},{"mesh":1,"name":"willow.001_Bark baked_0"}],"samplers":[{"magFilter":9729,"minFilter":9987,"wrapS":10497,"wrapT":10497}],"scene":0,"scenes":[{"name":"Sketchfab_Scene","nodes":[0]}],"textures":[{"sampler":0,"source":0},{"sampler":0,"source":1},{"sampler":0,"source":2},{"sampler":0,"source":3},{"sampler":0,"source":4}]}